#N canvas 756 217 521 297 10;
#X text 117 42 min;
#X text 202 42 max;
#X text 284 42 min;
#X text 372 42 max;
#X obj 31 70 inlet;
#X obj 31 254 outlet;
#X obj 114 93 f \$1;
#X obj 197 93 f \$2;
#X obj 280 93 f \$3;
#X obj 364 93 f \$4;
#X obj 114 70 inlet;
#X obj 197 70 inlet;
#X obj 280 70 inlet;
#X obj 364 70 inlet;
#X obj 416 76 loadbang;
#X text 157 19 input;
#X text 317 19 output;
#X obj 31 163 expr (1 - (($f3-$f1) / ($f3 - $f2))) * ($f5 - $f4) +
$f4;
#X connect 4 0 17 0;
#X connect 6 0 17 1;
#X connect 7 0 17 2;
#X connect 8 0 17 3;
#X connect 9 0 17 4;
#X connect 10 0 6 0;
#X connect 11 0 7 0;
#X connect 12 0 8 0;
#X connect 13 0 9 0;
#X connect 14 0 9 0;
#X connect 14 0 8 0;
#X connect 14 0 7 0;
#X connect 14 0 6 0;
#X connect 17 0 5 0;
