#N canvas -8 -8 1024 685 10;
#X declare -lib mrpeach;
#X obj 175 251 packOSC;
#X obj 176 275 udpsend;
#X obj 176 304 tgl 15 0 empty empty empty 17 7 0 10 -262144 -1 -1 0
1;
#X msg 83 196 disconnect;
#X obj 466 270 udpreceive 9001;
#X obj 466 298 unpackOSC;
#X floatatom 465 356 5 0 0 0 - - -;
#X floatatom 548 357 5 0 0 0 - - -;
#X obj 25 13 declare -lib mrpeach;
#X msg 16 173 connect 127.0.0.1 9001;
#X obj 360 327 print;
#X obj 817 469 output~;
#X obj 818 408 catch~;
#N canvas -64 13 1024 685 sonidos_lista1 0;
#X obj 287 349 readsf~;
#X msg 313 297 start;
#X msg 315 320 stop;
#X obj 268 249 t b b;
#X obj 369 127 sel 0 1 2 3;
#X obj 359 208 bng 15 250 50 0 empty empty empty 17 7 0 10 -262144
-1 -1;
#X obj 381 207 bng 15 250 50 0 empty empty empty 17 7 0 10 -262144
-1 -1;
#X obj 400 208 bng 15 250 50 0 empty empty empty 17 7 0 10 -262144
-1 -1;
#X obj 425 200 bng 15 250 50 0 empty empty empty 17 7 0 10 -262144
-1 -1;
#X obj 440 155 bng 15 250 50 0 empty empty empty 17 7 0 10 -262144
-1 -1;
#X obj 286 473 throw~;
#X obj 409 337 readsf~;
#X msg 435 285 start;
#X msg 437 308 stop;
#X obj 390 237 t b b;
#X obj 579 361 readsf~;
#X msg 605 309 start;
#X msg 607 332 stop;
#X obj 560 261 t b b;
#X obj 747 375 readsf~;
#X msg 773 303 start;
#X msg 775 326 stop;
#X obj 728 255 t b b;
#X obj 907 357 readsf~;
#X msg 933 305 start;
#X msg 935 328 stop;
#X obj 888 257 t b b;
#X obj 906 480 throw~;
#X obj 376 68 inlet;
#X msg 311 269 open kick_n.wav;
#X msg 433 257 open hihat_n.wav;
#X msg 603 281 open snare_n.wav;
#X msg 771 276 open snap_n.wav;
#X msg 931 277 open shaker.wav;
#X obj 394 476 throw~;
#X obj 576 503 throw~;
#X obj 731 508 throw~;
#X obj 286 406 *~ 0.2;
#X obj 394 409 *~ 0.2;
#X obj 576 436 *~ 0.2;
#X obj 731 441 *~ 0.2;
#X obj 932 431 *~ 0.2;
#X connect 0 0 37 0;
#X connect 1 0 0 0;
#X connect 2 0 0 0;
#X connect 3 0 1 0;
#X connect 3 1 29 0;
#X connect 4 0 5 0;
#X connect 4 1 6 0;
#X connect 4 2 7 0;
#X connect 4 3 8 0;
#X connect 4 4 9 0;
#X connect 5 0 3 0;
#X connect 6 0 14 0;
#X connect 7 0 18 0;
#X connect 8 0 22 0;
#X connect 9 0 26 0;
#X connect 11 0 38 0;
#X connect 12 0 11 0;
#X connect 13 0 11 0;
#X connect 14 0 12 0;
#X connect 14 1 30 0;
#X connect 15 0 39 0;
#X connect 16 0 15 0;
#X connect 17 0 15 0;
#X connect 18 0 16 0;
#X connect 18 1 31 0;
#X connect 19 0 40 0;
#X connect 20 0 19 0;
#X connect 21 0 19 0;
#X connect 22 0 20 0;
#X connect 22 1 32 0;
#X connect 23 0 41 0;
#X connect 24 0 23 0;
#X connect 25 0 23 0;
#X connect 26 0 24 0;
#X connect 26 1 33 0;
#X connect 28 0 4 0;
#X connect 29 0 0 0;
#X connect 30 0 11 0;
#X connect 31 0 15 0;
#X connect 32 0 19 0;
#X connect 33 0 23 0;
#X connect 37 0 10 0;
#X connect 38 0 34 0;
#X connect 39 0 35 0;
#X connect 40 0 36 0;
#X connect 41 0 27 0;
#X restore 367 509 pd sonidos_lista1;
#N canvas -377 57 1366 685 sonidos_lista2 0;
#X obj 287 350 readsf~;
#X msg 313 297 start;
#X msg 315 320 stop;
#X obj 268 249 t b b;
#X obj 369 127 sel 0 1 2 3;
#X obj 359 208 bng 15 250 50 0 empty empty empty 17 7 0 10 -262144
-1 -1;
#X obj 381 207 bng 15 250 50 0 empty empty empty 17 7 0 10 -262144
-1 -1;
#X obj 400 208 bng 15 250 50 0 empty empty empty 17 7 0 10 -262144
-1 -1;
#X obj 425 200 bng 15 250 50 0 empty empty empty 17 7 0 10 -262144
-1 -1;
#X obj 440 155 bng 15 250 50 0 empty empty empty 17 7 0 10 -262144
-1 -1;
#X obj 283 455 throw~;
#X obj 409 337 readsf~;
#X msg 435 285 start;
#X msg 437 308 stop;
#X obj 390 237 t b b;
#X obj 409 451 throw~;
#X obj 591 344 readsf~;
#X msg 617 292 start;
#X msg 619 315 stop;
#X obj 572 244 t b b;
#X obj 590 479 throw~;
#X obj 785 345 readsf~;
#X msg 811 293 start;
#X msg 813 316 stop;
#X obj 766 245 t b b;
#X obj 781 473 throw~;
#X obj 975 350 readsf~;
#X msg 1001 298 start;
#X msg 1003 321 stop;
#X obj 956 250 t b b;
#X obj 986 469 throw~;
#X obj 376 68 inlet;
#X msg 310 269 open acorde1.wav;
#X msg 433 257 open acorde2.wav;
#X msg 615 264 open acorde3.wav;
#X msg 809 266 open acorde4.wav;
#X obj 292 394 *~;
#X obj 961 14 inlet;
#X obj 410 398 *~;
#X obj 591 400 *~;
#X obj 790 399 *~;
#X obj 980 407 *~;
#X msg 999 270 open acorde5.wav;
#X connect 0 0 36 0;
#X connect 1 0 0 0;
#X connect 2 0 0 0;
#X connect 3 0 1 0;
#X connect 3 1 32 0;
#X connect 4 0 5 0;
#X connect 4 1 6 0;
#X connect 4 2 7 0;
#X connect 4 3 8 0;
#X connect 4 4 9 0;
#X connect 5 0 3 0;
#X connect 6 0 14 0;
#X connect 7 0 19 0;
#X connect 8 0 24 0;
#X connect 9 0 29 0;
#X connect 11 0 38 0;
#X connect 12 0 11 0;
#X connect 13 0 11 0;
#X connect 14 0 12 0;
#X connect 14 1 33 0;
#X connect 16 0 39 0;
#X connect 17 0 16 0;
#X connect 18 0 16 0;
#X connect 19 0 17 0;
#X connect 19 1 34 0;
#X connect 21 0 40 0;
#X connect 22 0 21 0;
#X connect 23 0 21 0;
#X connect 24 0 22 0;
#X connect 24 1 35 0;
#X connect 26 0 41 0;
#X connect 27 0 26 0;
#X connect 28 0 26 0;
#X connect 29 0 27 0;
#X connect 29 1 42 0;
#X connect 31 0 4 0;
#X connect 32 0 0 0;
#X connect 33 0 11 0;
#X connect 34 0 16 0;
#X connect 35 0 21 0;
#X connect 36 0 10 0;
#X connect 37 0 36 1;
#X connect 37 0 38 1;
#X connect 37 0 39 1;
#X connect 37 0 40 1;
#X connect 37 0 41 1;
#X connect 38 0 15 0;
#X connect 39 0 20 0;
#X connect 40 0 25 0;
#X connect 41 0 30 0;
#X connect 42 0 26 0;
#X restore 549 516 pd sonidos_lista2;
#N canvas 141 144 738 460 Bass 0;
#X floatatom 81 102 5 0 0 0 - - -;
#X floatatom 151 100 5 0 0 0 - - -;
#X obj 82 132 osc~;
#X obj 152 135 osc~;
#X obj 83 166 *~;
#X floatatom 278 99 5 0 0 0 - - -;
#X obj 280 132 osc~;
#X obj 163 9 inlet;
#X obj 85 240 throw~;
#X obj 266 61 + 1;
#X obj 161 63 - 1;
#X obj 363 177 line~;
#X obj 82 205 *~;
#X obj 353 30 bng 15 250 50 0 empty empty empty 17 7 0 10 -262144 -1
-1;
#X obj 427 65 delay 500;
#X msg 363 118 0 \, 0.2 1000;
#X msg 436 118 0.2 \, 0 300;
#X connect 0 0 2 0;
#X connect 1 0 3 0;
#X connect 2 0 4 0;
#X connect 3 0 4 1;
#X connect 4 0 12 0;
#X connect 5 0 6 0;
#X connect 6 0 4 1;
#X connect 7 0 0 0;
#X connect 7 0 9 0;
#X connect 7 0 10 0;
#X connect 7 0 13 0;
#X connect 9 0 5 0;
#X connect 10 0 1 0;
#X connect 11 0 12 1;
#X connect 12 0 8 0;
#X connect 13 0 15 0;
#X connect 13 0 14 0;
#X connect 14 0 16 0;
#X connect 15 0 11 0;
#X connect 16 0 11 0;
#X restore 229 549 pd Bass;
#N canvas 257 29 640 685 Escalado 0;
#X floatatom 195 175 5 0 0 0 - - -;
#X floatatom 195 261 5 0 0 0 - - -;
#X obj 198 294 hsl 128 15 -8 17 0 0 empty empty range_-8_<_X_>17 -2
-8 0 10 -262144 -1 -1 12700 1;
#X obj 199 150 hsl 128 15 0 4 0 0 empty empty range_0_<_X_>4 -2 -8
0 10 -262144 -1 -1 0 1;
#X obj 202 89 inlet;
#X obj 240 359 outlet;
#X obj 196 215 escalamientoRango 0 4 30 60;
#X connect 0 0 6 0;
#X connect 1 0 2 0;
#X connect 2 0 5 0;
#X connect 3 0 0 0;
#X connect 4 0 3 0;
#X connect 6 0 1 0;
#X restore 231 511 pd Escalado Simple;
#N canvas 416 78 450 300 escalado_Volumen 0;
#X floatatom 195 175 5 0 0 0 - - -;
#X floatatom 195 261 5 0 0 0 - - -;
#X obj 199 292 hsl 128 15 0.1 0.9 0 0 empty empty range_0.1_<_X_>0.9
-2 -8 0 10 -262144 -1 -1 0 1;
#X obj 199 150 hsl 128 15 0 5 0 0 empty empty range_0_<_X_>5 -2 -8
0 10 -262144 -1 -1 0 1;
#X obj 202 89 inlet;
#X obj 240 359 outlet;
#X obj 196 215 escalamientoRango 0 5 0.1 0.9;
#X connect 0 0 6 0;
#X connect 1 0 2 0;
#X connect 2 0 5 0;
#X connect 3 0 0 0;
#X connect 4 0 3 0;
#X connect 6 0 1 0;
#X restore 646 479 pd escalado_Volumen;
#X floatatom 677 510 5 0 0 0 - - -;
#X obj 466 327 routeOSC /humanes /animales;
#X obj 889 303 writesf~;
#X msg 817 214 start;
#X msg 900 117 stop;
#X msg 54 599 \; pd dsp 1;
#X obj 54 569 loadbang;
#X msg 702 216 open tpt1.wav;
#X obj 730 151 t b b;
#X obj 728 116 bng 15 250 50 0 empty empty empty 17 7 0 10 -262144
-1 -1;
#X text 681 88 INICIAR GRABACION;
#X text 882 86 PARAR GRABACION;
#X connect 0 0 1 0;
#X connect 1 0 2 0;
#X connect 3 0 1 0;
#X connect 4 0 5 0;
#X connect 5 0 10 0;
#X connect 5 0 19 0;
#X connect 6 0 16 0;
#X connect 6 0 17 0;
#X connect 6 0 13 0;
#X connect 7 0 14 0;
#X connect 9 0 1 0;
#X connect 12 0 11 0;
#X connect 12 0 11 1;
#X connect 12 0 20 0;
#X connect 16 0 15 0;
#X connect 17 0 14 1;
#X connect 17 0 18 0;
#X connect 19 0 6 0;
#X connect 19 1 7 0;
#X connect 21 0 20 0;
#X connect 22 0 20 0;
#X connect 24 0 23 0;
#X connect 25 0 20 0;
#X connect 26 0 21 0;
#X connect 26 1 25 0;
#X connect 27 0 26 0;
